# xmcd CD database file
# Copyright (C) 1995-1998 Ti Kan
#
# Track frame offsets:
#	75
#	15205
#	35837
#	49870
#	71535
#	86400
#	105105
#	118090
#	133895
#	150577
#	178197
#	189397
#	203467
#	223897
#
# Disc length: 3189 seconds
#
# Revision: 1
# Processed by: cddbd v1.4PL0 Copyright (c) Steve Scherf et al.
# Submitted via: CDex 1.30Release
#
DISCID=b90c740e
DTITLE=Job Striles - Sings And Plays
DYEAR=1998
DGENRE=Blues
TTITLE0=She's The Only One For Me
TTITLE1=Who's Been Driving My Ford
TTITLE2=Roller Coaster
TTITLE3=Kill That Red Rooster
TTITLE4=Tell Me What's The Reason
TTITLE5=I've Got To Find My Baby
TTITLE6=Babe And Ricky's Inn
TTITLE7=Love That Little Girl
TTITLE8=Acting Like A Fool
TTITLE9=I'm Through With Women
TTITLE10=Okie Dokie Stomp
TTITLE11=Beautician Blues
TTITLE12=You Killing Me
TTITLE13=Coffee
EXTD=YEAR: 1998 ID3G:   0
EXTT0=
EXTT1=
EXTT2=
EXTT3=
EXTT4=
EXTT5=
EXTT6=
EXTT7=
EXTT8=
EXTT9=
EXTT10=
EXTT11=
EXTT12=
EXTT13=
PLAYORDER=
